<svg width="2300" height="800" viewBox="0 0 2300 800" fill="none" xmlns="http://www.w3.org/2000/svg">
<path d="M432.857 104.267C432.857 117.669 422.077 128.533 408.78 128.533C395.483 128.533 384.703 117.669 384.703 104.267C384.703 90.8645 395.483 80 408.78 80C422.077 80 432.857 90.8645 432.857 104.267Z" fill="white"/>
<path d="M320.642 127.06C320.642 140.462 309.863 151.326 296.566 151.326C283.269 151.326 272.489 140.462 272.489 127.06C272.489 113.658 283.269 102.793 296.566 102.793C309.863 102.793 320.642 113.658 320.642 127.06Z" fill="white"/>
<path d="M376.392 146.502C376.392 158.101 367.062 167.504 355.554 167.504C344.045 167.504 334.716 158.101 334.716 146.502C334.716 134.903 344.045 125.5 355.554 125.5C367.062 125.5 376.392 134.903 376.392 146.502Z" fill="white"/>
<path d="M284.241 186.599C284.241 198.198 274.912 207.601 263.403 207.601C251.895 207.601 242.566 198.198 242.566 186.599C242.566 175 251.895 165.597 263.403 165.597C274.912 165.597 284.241 175 284.241 186.599Z" fill="white"/>
<path d="M294.961 244.81C302.876 244.81 309.292 238.343 309.292 230.365C309.292 222.388 302.876 215.921 294.961 215.921C287.046 215.921 280.63 222.388 280.63 230.365C280.63 238.343 287.046 244.81 294.961 244.81Z" fill="white"/>
<path d="M214.332 259.197C214.332 270.796 205.003 280.199 193.494 280.199C181.986 280.199 172.657 270.796 172.657 259.197C172.657 247.597 181.986 238.194 193.494 238.194C205.003 238.194 214.332 247.597 214.332 259.197Z" fill="white"/>
<path d="M239.269 301.894C247.184 301.894 253.601 295.427 253.601 287.45C253.601 279.472 247.184 273.005 239.269 273.005C231.354 273.005 224.938 279.472 224.938 287.45C224.938 295.427 231.354 301.894 239.269 301.894Z" fill="white"/>
<path d="M177.329 353.23C177.329 364.829 168 374.232 156.491 374.232C144.983 374.232 135.654 364.829 135.654 353.23C135.654 341.63 144.983 332.227 156.491 332.227C168 332.227 177.329 341.63 177.329 353.23Z" fill="white"/>
<path d="M209.488 376.109C217.403 376.109 223.82 369.642 223.82 361.665C223.82 353.688 217.403 347.221 209.488 347.221C201.573 347.221 195.157 353.688 195.157 361.665C195.157 369.642 201.573 376.109 209.488 376.109Z" fill="white"/>
<path d="M210.177 456.16C218.092 456.16 224.508 449.693 224.508 441.715C224.508 433.738 218.092 427.271 210.177 427.271C202.262 427.271 195.846 433.738 195.846 441.715C195.846 449.693 202.262 456.16 210.177 456.16Z" fill="white"/>
<path d="M241.189 529.884C249.104 529.884 255.521 523.417 255.521 515.439C255.521 507.462 249.104 500.995 241.189 500.995C233.274 500.995 226.858 507.462 226.858 515.439C226.858 523.417 233.274 529.884 241.189 529.884Z" fill="white"/>
<path d="M297.827 586.014C305.742 586.014 312.158 579.547 312.158 571.57C312.158 563.593 305.742 557.126 297.827 557.126C289.912 557.126 283.496 563.593 283.496 571.57C283.496 579.547 289.912 586.014 297.827 586.014Z" fill="white"/>
<path d="M385.793 601.557C385.793 609.534 379.376 616.001 371.461 616.001C363.546 616.001 357.13 609.534 357.13 601.557C357.13 593.579 363.546 587.112 371.461 587.112C379.376 587.112 385.793 593.579 385.793 601.557Z" fill="white"/>
<path d="M383.93 655.001C383.93 666.6 374.6 676.003 363.092 676.003C351.584 676.003 342.254 666.6 342.254 655.001C342.254 643.401 351.584 633.999 363.092 633.999C374.6 633.999 383.93 643.401 383.93 655.001Z" fill="white"/>
<path d="M411.561 651.563C420.441 651.563 427.641 644.307 427.641 635.356C427.641 626.406 420.441 619.15 411.561 619.15C402.68 619.15 395.481 626.406 395.481 635.356C395.481 644.307 402.68 651.563 411.561 651.563Z" fill="white"/>
<path d="M434.262 695.734C434.262 709.136 423.482 720 410.185 720C396.888 720 386.108 709.136 386.108 695.734C386.108 682.332 396.888 671.467 410.185 671.467C423.482 671.467 434.262 682.332 434.262 695.734Z" fill="white"/>
<path d="M290.632 617.677C290.632 629.276 281.303 638.679 269.795 638.679C258.286 638.679 248.957 629.276 248.957 617.677C248.957 606.077 258.286 596.674 269.795 596.674C281.303 596.674 290.632 606.077 290.632 617.677Z" fill="white"/>
<path d="M322.047 634.461C330.927 634.461 338.126 627.205 338.126 618.254C338.126 609.303 330.927 602.047 322.047 602.047C313.166 602.047 305.967 609.303 305.967 618.254C305.967 627.205 313.166 634.461 322.047 634.461Z" fill="white"/>
<path d="M321.932 673.489C321.932 686.891 311.152 697.756 297.855 697.756C284.558 697.756 273.779 686.891 273.779 673.489C273.779 660.087 284.558 649.223 297.855 649.223C311.152 649.223 321.932 660.087 321.932 673.489Z" fill="white"/>
<path d="M218.603 547.246C218.603 558.845 209.273 568.248 197.765 568.248C186.257 568.248 176.927 558.845 176.927 547.246C176.927 535.646 186.257 526.243 197.765 526.243C209.273 526.243 218.603 535.646 218.603 547.246Z" fill="white"/>
<path d="M245.832 584.108C254.713 584.108 261.912 576.852 261.912 567.901C261.912 558.95 254.713 551.695 245.832 551.695C236.952 551.695 229.752 558.95 229.752 567.901C229.752 576.852 236.952 584.108 245.832 584.108Z" fill="white"/>
<path d="M226.6 609.616C226.6 623.018 215.82 633.883 202.523 633.883C189.226 633.883 178.447 623.018 178.447 609.616C178.447 596.214 189.226 585.35 202.523 585.35C215.82 585.35 226.6 596.214 226.6 609.616Z" fill="white"/>
<path d="M178.82 454.369C178.82 465.968 169.49 475.371 157.982 475.371C146.474 475.371 137.144 465.968 137.144 454.369C137.144 442.769 146.474 433.367 157.982 433.367C169.49 433.367 178.82 442.769 178.82 454.369Z" fill="white"/>
<path d="M194.527 508.217C203.408 508.217 210.607 500.961 210.607 492.01C210.607 483.06 203.408 475.804 194.527 475.804C185.646 475.804 178.447 483.06 178.447 492.01C178.447 500.961 185.646 508.217 194.527 508.217Z" fill="white"/>
<path d="M162.769 513.821C162.769 527.223 151.989 538.088 138.692 538.088C125.395 538.088 114.615 527.223 114.615 513.821C114.615 500.419 125.395 489.555 138.692 489.555C151.989 489.555 162.769 500.419 162.769 513.821Z" fill="white"/>
<path d="M175.982 418.287C184.863 418.287 192.062 411.031 192.062 402.08C192.062 393.13 184.863 385.874 175.982 385.874C167.101 385.874 159.902 393.13 159.902 402.08C159.902 411.031 167.101 418.287 175.982 418.287Z" fill="white"/>
<path d="M140.153 400.694C140.153 414.096 129.374 424.96 116.077 424.96C102.779 424.96 92 414.096 92 400.694C92 387.292 102.779 376.427 116.077 376.427C129.374 376.427 140.153 387.292 140.153 400.694Z" fill="white"/>
<path d="M192.95 328.067C201.831 328.067 209.03 320.811 209.03 311.861C209.03 302.91 201.831 295.654 192.95 295.654C184.07 295.654 176.871 302.91 176.871 311.861C176.871 320.811 184.07 328.067 192.95 328.067Z" fill="white"/>
<path d="M162.224 287.478C162.224 300.881 151.444 311.745 138.147 311.745C124.85 311.745 114.07 300.881 114.07 287.478C114.07 274.076 124.85 263.212 138.147 263.212C151.444 263.212 162.224 274.076 162.224 287.478Z" fill="white"/>
<path d="M242.91 251.252C251.791 251.252 258.99 243.996 258.99 235.045C258.99 226.095 251.791 218.839 242.91 218.839C234.029 218.839 226.83 226.095 226.83 235.045C226.83 243.996 234.029 251.252 242.91 251.252Z" fill="white"/>
<path d="M225.597 191.394C225.597 204.796 214.818 215.661 201.521 215.661C188.224 215.661 177.444 204.796 177.444 191.394C177.444 177.992 188.224 167.128 201.521 167.128C214.818 167.128 225.597 177.992 225.597 191.394Z" fill="white"/>
<path d="M368.08 213.552C375.995 213.552 382.411 207.086 382.411 199.108C382.411 191.131 375.995 184.664 368.08 184.664C360.165 184.664 353.748 191.131 353.748 199.108C353.748 207.086 360.165 213.552 368.08 213.552Z" fill="white"/>
<path d="M318.207 199.542C327.087 199.542 334.286 192.286 334.286 183.335C334.286 174.384 327.087 167.129 318.207 167.129C309.326 167.129 302.127 174.384 302.127 183.335C302.127 192.286 309.326 199.542 318.207 199.542Z" fill="white"/>
<path d="M447.503 212.859C455.418 212.859 461.834 206.392 461.834 198.415C461.834 190.437 455.418 183.971 447.503 183.971C439.588 183.971 433.171 190.437 433.171 198.415C433.171 206.392 439.588 212.859 447.503 212.859Z" fill="white"/>
<path d="M476.739 145C476.739 156.599 467.409 166.002 455.901 166.002C444.393 166.002 435.063 156.599 435.063 145C435.063 133.4 444.393 123.998 455.901 123.998C467.409 123.998 476.739 133.4 476.739 145Z" fill="white"/>
<path d="M407.404 180.851C416.285 180.851 423.484 173.595 423.484 164.644C423.484 155.693 416.285 148.437 407.404 148.437C398.523 148.437 391.324 155.693 391.324 164.644C391.324 173.595 398.523 180.851 407.404 180.851Z" fill="white"/>
<path d="M521.167 242.875C529.082 242.875 535.498 236.408 535.498 228.43C535.498 220.453 529.082 213.986 521.167 213.986C513.252 213.986 506.836 220.453 506.836 228.43C506.836 236.408 513.252 242.875 521.167 242.875Z" fill="white"/>
<path d="M570.037 182.295C570.037 193.894 560.707 203.297 549.199 203.297C537.691 203.297 528.361 193.894 528.361 182.295C528.361 170.696 537.691 161.293 549.199 161.293C560.707 161.293 570.037 170.696 570.037 182.295Z" fill="white"/>
<path d="M496.947 197.953C505.827 197.953 513.027 190.697 513.027 181.746C513.027 172.795 505.827 165.54 496.947 165.54C488.066 165.54 480.867 172.795 480.867 181.746C480.867 190.697 488.066 197.953 496.947 197.953Z" fill="white"/>
<path d="M545.215 126.511C545.215 139.913 534.436 150.777 521.138 150.777C507.841 150.777 497.062 139.913 497.062 126.511C497.062 113.109 507.841 102.244 521.138 102.244C534.436 102.244 545.215 113.109 545.215 126.511Z" fill="white"/>
<path d="M577.804 299.006C585.719 299.006 592.135 292.539 592.135 284.561C592.135 276.584 585.719 270.117 577.804 270.117C569.889 270.117 563.472 276.584 563.472 284.561C563.472 292.539 569.889 299.006 577.804 299.006Z" fill="white"/>
<path d="M642.037 252.755C642.037 264.354 632.708 273.757 621.199 273.757C609.691 273.757 600.362 264.354 600.362 252.755C600.362 241.156 609.691 231.753 621.199 231.753C632.708 231.753 642.037 241.156 642.037 252.755Z" fill="white"/>
<path d="M573.16 248.306C582.041 248.306 589.24 241.05 589.24 232.099C589.24 223.149 582.041 215.893 573.16 215.893C564.28 215.893 557.081 223.149 557.081 232.099C557.081 241.05 564.28 248.306 573.16 248.306Z" fill="white"/>
<path d="M640.546 190.384C640.546 203.786 629.767 214.65 616.47 214.65C603.172 214.65 592.393 203.786 592.393 190.384C592.393 176.982 603.172 166.117 616.47 166.117C629.767 166.117 640.546 176.982 640.546 190.384Z" fill="white"/>
<path d="M608.816 372.7C616.731 372.7 623.148 366.233 623.148 358.256C623.148 350.279 616.731 343.812 608.816 343.812C600.902 343.812 594.485 350.279 594.485 358.256C594.485 366.233 600.902 372.7 608.816 372.7Z" fill="white"/>
<path d="M681.849 345.632C681.849 357.231 672.52 366.634 661.011 366.634C649.503 366.634 640.174 357.231 640.174 345.632C640.174 334.032 649.503 324.629 661.011 324.629C672.52 324.629 681.849 334.032 681.849 345.632Z" fill="white"/>
<path d="M624.438 324.196C633.318 324.196 640.517 316.94 640.517 307.99C640.517 299.039 633.318 291.783 624.438 291.783C615.557 291.783 608.358 299.039 608.358 307.99C608.358 316.94 615.557 324.196 624.438 324.196Z" fill="white"/>
<path d="M704.378 286.179C704.378 299.581 693.599 310.445 680.301 310.445C667.004 310.445 656.225 299.581 656.225 286.179C656.225 272.777 667.004 261.912 680.301 261.912C693.599 261.912 704.378 272.777 704.378 286.179Z" fill="white"/>
<path d="M609.476 452.75C617.391 452.75 623.808 446.284 623.808 438.306C623.808 430.329 617.391 423.862 609.476 423.862C601.561 423.862 595.145 430.329 595.145 438.306C595.145 446.284 601.561 452.75 609.476 452.75Z" fill="white"/>
<path d="M683.34 446.77C683.34 458.369 674.011 467.772 662.502 467.772C650.994 467.772 641.665 458.369 641.665 446.77C641.665 435.171 650.994 425.768 662.502 425.768C674.011 425.768 683.34 435.171 683.34 446.77Z" fill="white"/>
<path d="M643.012 414.097C651.893 414.097 659.092 406.841 659.092 397.891C659.092 388.94 651.893 381.684 643.012 381.684C634.132 381.684 626.932 388.94 626.932 397.891C626.932 406.841 634.132 414.097 643.012 414.097Z" fill="white"/>
<path d="M726.994 399.277C726.994 412.679 716.214 423.544 702.917 423.544C689.62 423.544 678.84 412.679 678.84 399.277C678.84 385.875 689.62 375.011 702.917 375.011C716.214 375.011 726.994 385.875 726.994 399.277Z" fill="white"/>
<path d="M579.695 526.995C587.61 526.995 594.027 520.528 594.027 512.55C594.027 504.573 587.61 498.106 579.695 498.106C571.78 498.106 565.364 504.573 565.364 512.55C565.364 520.528 571.78 526.995 579.695 526.995Z" fill="white"/>
<path d="M646.308 540.804C646.308 552.403 636.978 561.806 625.47 561.806C613.962 561.806 604.632 552.403 604.632 540.804C604.632 529.205 613.962 519.802 625.47 519.802C636.978 519.802 646.308 529.205 646.308 540.804Z" fill="white"/>
<path d="M626.043 504.346C634.924 504.346 642.123 497.09 642.123 488.14C642.123 479.189 634.924 471.933 626.043 471.933C617.162 471.933 609.963 479.189 609.963 488.14C609.963 497.09 617.162 504.346 626.043 504.346Z" fill="white"/>
<path d="M704.923 512.522C704.923 525.924 694.143 536.788 680.846 536.788C667.549 536.788 656.769 525.924 656.769 512.522C656.769 499.12 667.549 488.255 680.846 488.255C694.143 488.255 704.923 499.12 704.923 512.522Z" fill="white"/>
<path d="M524.033 584.079C531.948 584.079 538.364 577.612 538.364 569.634C538.364 561.657 531.948 555.19 524.033 555.19C516.118 555.19 509.701 561.657 509.701 569.634C509.701 577.612 516.118 584.079 524.033 584.079Z" fill="white"/>
<path d="M576.428 613.372C576.428 624.971 567.099 634.374 555.591 634.374C544.082 634.374 534.753 624.971 534.753 613.372C534.753 601.773 544.082 592.37 555.591 592.37C567.099 592.37 576.428 601.773 576.428 613.372Z" fill="white"/>
<path d="M576.085 581.161C584.965 581.161 592.164 573.905 592.164 564.954C592.164 556.004 584.965 548.748 576.085 548.748C567.204 548.748 560.005 556.004 560.005 564.954C560.005 573.905 567.204 581.161 576.085 581.161Z" fill="white"/>
<path d="M641.55 608.605C641.55 622.007 630.771 632.872 617.474 632.872C604.176 632.872 593.397 622.007 593.397 608.605C593.397 595.203 604.176 584.339 617.474 584.339C630.771 584.339 641.55 595.203 641.55 608.605Z" fill="white"/>
<path d="M450.886 615.337C458.801 615.337 465.217 608.87 465.217 600.892C465.217 592.915 458.801 586.448 450.886 586.448C442.971 586.448 436.555 592.915 436.555 600.892C436.555 608.87 442.971 615.337 450.886 615.337Z" fill="white"/>
<path d="M484.278 653.499C484.278 665.098 474.948 674.501 463.44 674.501C451.932 674.501 442.602 665.098 442.602 653.499C442.602 641.9 451.932 632.497 463.44 632.497C474.948 632.497 484.278 641.9 484.278 653.499Z" fill="white"/>
<path d="M500.788 632.843C509.668 632.843 516.868 625.587 516.868 616.637C516.868 607.686 509.668 600.43 500.788 600.43C491.907 600.43 484.708 607.686 484.708 616.637C484.708 625.587 491.907 632.843 500.788 632.843Z" fill="white"/>
<path d="M546.505 672.941C546.505 686.343 535.726 697.207 522.428 697.207C509.131 697.207 498.352 686.343 498.352 672.941C498.352 659.539 509.131 648.674 522.428 648.674C535.726 648.674 546.505 659.539 546.505 672.941Z" fill="white"/>
<path d="M1025.32 308.86C1014.95 298.523 1002.82 290.771 988.982 285.56C975.142 280.349 960.215 277.808 944.2 277.808C920.408 277.808 899.711 283.145 882.066 293.821C864.421 304.497 850.79 319.366 841.089 338.472C831.388 357.578 826.58 379.734 826.58 405.025C826.58 430.316 831.43 453.362 841.089 472.298C850.79 491.235 864.588 505.85 882.526 516.145C900.464 526.439 921.914 531.565 946.876 531.565C966.863 531.565 984.55 528.43 999.853 522.203C1015.16 515.975 1027.7 507.206 1037.44 495.98C1047.19 484.711 1053.63 471.536 1056.8 456.37L994.585 452.218C992.285 458.403 988.898 463.614 984.466 467.893C980.034 472.171 974.724 475.349 968.535 477.509C962.347 479.67 955.49 480.686 948.005 480.686C936.716 480.686 927.015 478.272 918.778 473.485C910.541 468.697 904.227 461.877 899.753 453.023C895.279 444.169 893.021 433.663 893.021 421.505V421.335H1058.22V402.61C1058.22 381.725 1055.34 363.424 1049.53 347.834C1043.72 332.202 1035.65 319.239 1025.28 308.86H1025.32ZM893.23 379.099C893.648 370.287 895.78 362.196 899.878 354.867C904.31 346.902 910.415 340.59 918.276 335.803C926.137 331.059 935.127 328.686 945.371 328.686C955.615 328.686 963.769 330.847 971.17 335.168C978.612 339.489 984.424 345.42 988.606 353.003C992.829 360.586 994.919 369.27 994.919 379.099H893.23Z" fill="white"/>
<path d="M1167.48 339.489C1175.22 333.77 1184.29 330.931 1194.7 330.931C1207.04 330.931 1216.99 334.702 1224.64 342.2C1232.29 349.741 1236.98 359.612 1238.77 371.897H1302.25C1301.28 352.918 1296.18 336.396 1286.94 322.289C1277.66 308.225 1265.07 297.295 1249.19 289.5C1233.3 281.705 1214.77 277.808 1193.62 277.808C1169.07 277.808 1147.91 283.188 1130.14 293.906C1112.33 304.624 1098.62 319.493 1089 338.557C1079.38 357.578 1074.53 379.692 1074.53 404.856C1074.53 430.02 1079.3 451.667 1088.83 470.773C1098.37 489.879 1112.04 504.791 1129.89 515.509C1147.75 526.227 1169.07 531.565 1193.91 531.565C1215.48 531.565 1234.17 527.583 1249.98 519.576C1265.79 511.569 1278.16 500.47 1287.15 486.194C1296.14 471.959 1301.16 455.438 1302.25 436.671H1238.77C1237.52 445.313 1234.84 452.684 1230.79 458.827C1226.73 464.969 1221.63 469.629 1215.48 472.807C1209.34 476.026 1202.4 477.594 1194.7 477.594C1184.29 477.594 1175.18 474.713 1167.4 468.952C1159.62 463.19 1153.6 454.802 1149.34 443.83C1145.07 432.858 1142.94 419.513 1142.94 403.839C1142.94 388.165 1145.11 375.201 1149.42 364.314C1153.73 353.426 1159.75 345.166 1167.48 339.447V339.489Z" fill="white"/>
<path d="M1386.12 199.096H1318.85V526.778H1386.12V199.096Z" fill="white"/>
<path d="M1446.92 180.372C1437.01 180.372 1428.48 183.761 1421.33 190.539C1414.18 197.317 1410.58 205.451 1410.58 214.94C1410.58 224.43 1414.14 232.521 1421.25 239.257C1428.35 245.993 1436.93 249.339 1446.92 249.339C1456.91 249.339 1465.49 245.95 1472.59 239.172C1479.7 232.394 1483.26 224.26 1483.26 214.771C1483.26 205.281 1479.7 197.19 1472.59 190.454C1465.49 183.718 1456.91 180.372 1446.92 180.372Z" fill="white"/>
<path d="M1480.41 281.027H1413.13V526.778H1480.41V281.027Z" fill="white"/>
<path d="M1694.7 291.788C1679.74 282.468 1663.43 277.808 1645.74 277.808C1632.15 277.808 1620.82 280.138 1611.71 284.755C1602.59 289.373 1595.23 295.134 1589.59 302.04C1583.94 308.902 1579.68 315.681 1576.71 322.289H1573.7V281.027H1507.38V618.918H1574.66V487.422H1576.71C1579.76 494.243 1584.19 501.021 1589.96 507.672C1595.73 514.323 1603.22 519.873 1612.29 524.236C1621.36 528.599 1632.49 530.802 1645.53 530.802C1663.97 530.802 1680.61 525.973 1695.5 516.314C1710.38 506.655 1722.18 492.421 1730.87 473.612C1739.57 454.802 1743.92 431.672 1743.92 404.263C1743.92 376.853 1739.44 352.664 1730.5 333.939C1721.55 315.215 1709.59 301.192 1694.66 291.872L1694.7 291.788ZM1669.37 441.712C1665.44 452.642 1659.67 461.199 1652.06 467.299C1644.49 473.442 1635.2 476.492 1624.25 476.492C1613.29 476.492 1604.18 473.485 1596.61 467.469C1589.04 461.453 1583.23 452.981 1579.26 442.093C1575.24 431.206 1573.24 418.454 1573.24 403.839C1573.24 389.224 1575.24 376.515 1579.26 365.754C1583.27 354.994 1589 346.648 1596.57 340.802C1604.1 334.956 1613.34 331.991 1624.29 331.991C1635.25 331.991 1644.65 335.041 1652.22 341.099C1659.79 347.199 1665.52 355.587 1669.45 366.39C1673.34 377.15 1675.3 389.647 1675.3 403.839C1675.3 418.031 1673.34 430.74 1669.37 441.67V441.712Z" fill="white"/>
<path d="M1899.21 384.055L1855.31 375.117C1844.06 372.659 1836.12 369.397 1831.48 365.373C1826.83 361.306 1824.53 356.35 1824.53 350.503C1824.53 343.132 1828.13 337.244 1835.28 332.838C1842.43 328.432 1851.21 326.187 1861.66 326.187C1869.44 326.187 1876.17 327.5 1881.82 330.127C1887.46 332.753 1892.02 336.227 1895.49 340.548C1898.96 344.869 1901.22 349.698 1902.27 355.036L1963.86 351.181C1960.89 328.559 1950.6 310.682 1933 297.591C1915.35 284.459 1891.23 277.892 1860.58 277.892C1839.84 277.892 1821.73 280.985 1806.35 287.17C1790.92 293.355 1778.96 302.167 1770.51 313.562C1762.02 324.958 1757.8 338.557 1757.8 354.358C1757.8 372.702 1763.57 387.783 1775.11 399.645C1786.65 411.464 1804.26 419.81 1827.92 424.597L1869.94 433.07C1880.48 435.188 1888.26 438.28 1893.32 442.263C1898.38 446.245 1900.97 451.371 1901.05 457.556C1900.93 464.927 1897.29 470.9 1890.1 475.56C1882.91 480.22 1873.37 482.508 1861.58 482.508C1849.79 482.508 1839.75 479.924 1832.06 474.755C1824.37 469.587 1819.52 462.046 1817.55 452.133L1751.4 455.65C1754.66 479.119 1765.79 497.632 1784.81 511.23C1803.8 524.829 1829.39 531.65 1861.5 531.65C1882.57 531.65 1901.18 528.261 1917.32 521.482C1933.46 514.704 1946.21 505.257 1955.54 493.099C1964.86 480.941 1969.5 466.791 1969.5 450.693C1969.5 432.985 1963.69 418.709 1952.15 407.821C1940.57 396.934 1923 389.054 1899.42 384.14L1899.21 384.055Z" fill="white"/>
<path d="M2207 421.335V402.61C2207 381.725 2204.11 363.424 2198.3 347.834C2192.49 332.202 2184.42 319.239 2174.05 308.86C2163.68 298.523 2151.56 290.771 2137.72 285.56C2123.88 280.349 2108.95 277.808 2092.93 277.808C2069.14 277.808 2048.44 283.145 2030.8 293.821C2013.15 304.497 1999.52 319.366 1989.82 338.472C1980.12 357.578 1975.31 379.734 1975.31 405.025C1975.31 430.316 1980.16 453.362 1989.82 472.298C1999.52 491.235 2013.32 505.85 2031.26 516.145C2049.2 526.439 2070.65 531.565 2095.61 531.565C2115.6 531.565 2133.28 528.43 2148.59 522.203C2163.89 515.975 2176.43 507.206 2186.18 495.98C2195.92 484.711 2202.36 471.536 2205.54 456.37L2143.32 452.218C2141.02 458.403 2137.63 463.614 2133.2 467.893C2128.77 472.171 2123.46 475.349 2117.27 477.509C2111.08 479.67 2104.22 480.686 2096.74 480.686C2085.45 480.686 2075.75 478.272 2067.51 473.485C2059.27 468.697 2052.96 461.877 2048.49 453.023C2044.01 444.169 2041.75 433.663 2041.75 421.505V421.335H2207ZM2067.01 335.803C2074.87 331.059 2083.86 328.686 2094.1 328.686C2104.35 328.686 2112.5 330.847 2119.9 335.168C2127.35 339.489 2133.16 345.42 2137.34 353.003C2141.56 360.586 2143.65 369.27 2143.65 379.099H2041.96C2042.38 370.287 2044.51 362.196 2048.61 354.867C2053.04 346.902 2059.15 340.59 2067.01 335.803Z" fill="white"/>
</svg>
