<?xml version="1.0" encoding="UTF-8"?><svg id="Layer_1" xmlns="http://www.w3.org/2000/svg" viewBox="0 0 2694 500"><defs><style>.cls-1{fill:#fff;stroke-width:0px;}</style></defs><path class="cls-1" d="M2371.34,281.58l-6.12,24.54c-7.19,28.84-36.4,52.21-65.23,52.21h-207.95l10.64-42.67h175.49c7.21,0,14.51-5.84,16.31-13.05l4.37-17.52c1.8-7.21-2.59-13.05-9.8-13.05h-123.28c-28.84,0-46.39-23.38-39.2-52.21l6.12-24.54c7.19-28.83,36.4-52.21,65.23-52.21h207.95l-10.64,42.67h-175.81c-7.21,0-14.51,5.84-16.31,13.05l-4.37,17.52c-1.8,7.21,2.59,13.05,9.8,13.05h123.6c28.83,0,46.38,23.38,39.2,52.21h0Z"/><path class="cls-1" d="M1927.68,143.07h-32.14c-21.63,0-43.53,17.53-48.92,39.16l-43.91,176.1h71.3l21.52-86.3h136.65c28.84,0,58.04-23.38,65.23-52.21l6.12-24.54c7.19-28.83-10.36-52.21-39.2-52.21h-136.65ZM2011.05,229.37h-104.88l10.88-43.62h104.88c7.21,0,11.6,5.84,9.8,13.05l-4.37,17.52c-1.8,7.21-9.1,13.05-16.31,13.05Z"/><path class="cls-1" d="M1816.58,185.74l10.64-42.67h-260.17l-10.64,42.67h81.38c7.21,0,11.6,5.84,9.8,13.05l-25.89,103.81c-1.8,7.21-9.1,13.05-16.31,13.05h-81.38l-10.64,42.67h260.17l10.64-42.67h-81.38c-7.21,0-11.6-5.84-9.8-13.05l25.89-103.81c1.8-7.21,9.1-13.05,16.31-13.05h81.38Z"/><path class="cls-1" d="M1309.39,302.61l39.78-159.54h-71.3l-43.91,176.1c-5.39,21.63,7.77,39.16,29.4,39.16h221.01l10.64-42.67h-175.81c-7.21,0-11.6-5.84-9.8-13.05h0Z"/><path class="cls-1" d="M1238.27,185.74l10.64-42.67h-207.95c-28.84,0-58.05,23.38-65.23,52.21l-27.63,110.84c-7.19,28.84,10.36,52.21,39.2,52.21h207.95l10.64-42.67h-149.71c-21.63,0-34.79-17.53-29.39-39.16l12.86-51.6c5.39-21.63,27.3-39.16,48.92-39.16h149.71Z"/><path class="cls-1" d="M949.37,185.74l10.64-42.67h-207.95c-28.84,0-58.05,23.38-65.23,52.21l-27.63,110.84c-7.19,28.84,10.36,52.21,39.2,52.21h207.95l10.64-42.67h-175.81c-7.21,0-11.6-5.84-9.8-13.05l7.62-30.57h188.87l10.64-42.67h-188.87l7.62-30.57c1.8-7.21,9.1-13.05,16.31-13.05h175.81Z"/><path class="cls-1" d="M2682.73,185.74l10.64-42.67h-207.94c-28.85,0-58.06,23.38-65.24,52.21l-27.63,110.84c-7.19,28.84,10.36,52.21,39.2,52.21h207.94l10.64-42.67h-175.79c-7.22,0-11.61-5.84-9.81-13.05l7.62-30.57h188.88l10.64-42.67h-188.88l7.63-30.57c1.79-7.21,9.1-13.05,16.3-13.05h175.82Z"/><path class="cls-1" d="M138.34,427.17c-47.46,0-76.35-38.48-64.52-85.95l45.49-182.44c11.83-47.46,59.91-85.95,107.38-85.95h248.01C439.91,27.82,384.02,0,315.18,0,177.1,0,39.26,111.92,7.3,250c-31.96,138.08,54.04,250,192.12,250,68.84,0,137.61-27.82,193.24-72.83h-254.32Z"/><path class="cls-1" d="M262.08,143.07c-11.87,0-23.89,9.62-26.84,21.49l-12.55,50.32h193.15l-17.51,70.24h-193.15l-12.55,50.32c-2.96,11.87,4.26,21.49,16.13,21.49h249.81c22.87-32.42,39.87-68.67,48.73-106.93,8.86-38.26,8.64-74.51.78-106.93h-246Z"/></svg>